# xmcd
#
# Track frame offsets:
#	150
#	8025
#	26100
#	46275
#	66600
#	81900
#
# Disc length: 1301 seconds
#
# Revision: 1
# Processed by: cddbd v1.5.1PL0 Copyright (c) Steve Scherf et al.
# Submitted via: CDex 1.50Beta5
#
DISCID=4b051306
DTITLE=二ノ舞きさらぎ(木村亜希子) - ぬくもり・あこがれ
DYEAR=2003
DGENRE=Anime
TTITLE0=きさらぎのテーマ(Instrumental Music)
TTITLE1=ビューティースマイル
TTITLE2=ファンタジーライフ
TTITLE3=ハートの卵
TTITLE4=Guardian Angel
TTITLE5=ママ先生のドキドキおやすみなさい〜ぬくもり・あこがれ
EXTD=
EXTT0=
EXTT1=
EXTT2=
EXTT3=
EXTT4=
EXTT5=
PLAYORDER=
